<svg width="45" height="42" viewBox="0 0 45 42" fill="none" xmlns="http://www.w3.org/2000/svg">
<path d="M44.1127 9.66071C43.7109 9.125 43.1484 8.75 42.5324 8.50893C42.5592 8.99107 42.5592 9.52678 42.3984 10.0357L34.3627 36.4732C34.0681 37.4375 32.9163 38 31.9252 38H7.20201C5.7288 38 3.88058 37.6786 3.34487 36.125C3.13058 35.5357 3.15737 35.2946 3.37165 34.9732C3.61272 34.6518 4.04129 34.5714 4.38951 34.5714H27.6663C31.0681 34.5714 31.7645 33.6607 33.0234 29.5357L40.3627 5.26785C40.7377 4.00893 40.577 2.75 39.8806 1.78571C39.2109 0.848212 38.0859 0.285712 36.827 0.285712H16.4431C15.9877 0.285712 15.5324 0.419642 15.077 0.526785L15.1038 0.446427C11.702 -0.517858 11.4877 3.15178 10.3627 4.8125C9.93415 5.42857 9.2913 5.96428 9.18415 6.47321C9.1038 6.95535 9.37165 7.41071 9.31808 7.86607C9.15737 9.28571 8.08594 11.8304 7.44308 12.7143C7.0413 13.25 6.45201 13.5179 6.26451 14.1339C6.1038 14.5625 6.37165 15.1786 6.31808 15.7411C6.18415 17 5.24665 19.3839 4.52344 20.6161C4.25558 21.0982 3.74665 21.4732 3.61272 21.9821C3.47879 22.4375 3.74665 23.0268 3.61272 23.5357C3.31808 24.9286 2.40737 27.0982 1.60379 28.4375C1.17522 29.1607 0.612723 29.6161 0.50558 30.2589C0.452009 30.5804 0.69308 30.9286 0.666295 31.3571C0.639509 32 0.532366 32.5357 0.478795 33.0714C0.103795 34.0893 0.103795 35.2679 0.532366 36.4732C1.52344 39.2589 4.44308 41.4286 7.17522 41.4286H31.8984C34.202 41.4286 36.5592 39.6607 37.2288 37.3839L44.5949 13.1161C44.9699 11.8839 44.7824 10.625 44.1127 9.66071ZM15.6127 9.71428L16.1752 8C16.3359 7.51785 16.8449 7.14285 17.3002 7.14285H33.5859C34.0681 7.14285 34.3359 7.51785 34.1752 8L33.6127 9.71428C33.452 10.1964 32.9431 10.5714 32.4877 10.5714H16.202C15.7199 10.5714 15.452 10.1964 15.6127 9.71428ZM13.3895 16.5714L13.952 14.8571C14.1127 14.375 14.6217 14 15.077 14H31.3627C31.8449 14 32.1127 14.375 31.952 14.8571L31.3895 16.5714C31.2288 17.0536 30.7199 17.4286 30.2645 17.4286H13.9788C13.4967 17.4286 13.2288 17.0536 13.3895 16.5714Z" fill="black"/>
</svg>
