<svg width="43" height="49" viewBox="0 0 43 49" fill="none" xmlns="http://www.w3.org/2000/svg">
<path d="M21.4933 21.4286C13.4308 21.4286 5.34152 19.9821 0.921875 16.875V21.4286C0.921875 25.2054 10.1362 28.2857 21.4933 28.2857C32.8504 28.2857 42.0647 25.2054 42.0647 21.4286V16.875C37.6451 19.9821 29.5558 21.4286 21.4933 21.4286ZM21.4933 42C13.4308 42 5.34152 40.5536 0.921875 37.4464V42C0.921875 45.7768 10.1362 48.8571 21.4933 48.8571C32.8504 48.8571 42.0647 45.7768 42.0647 42V37.4464C37.6451 40.5536 29.5558 42 21.4933 42ZM21.4933 31.7143C13.4308 31.7143 5.34152 30.2679 0.921875 27.1607V31.7143C0.921875 35.4911 10.1362 38.5714 21.4933 38.5714C32.8504 38.5714 42.0647 35.4911 42.0647 31.7143V27.1607C37.6451 30.2679 29.5558 31.7143 21.4933 31.7143ZM21.4933 0.85714C10.1362 0.85714 0.921875 3.9375 0.921875 7.71428V11.1429C0.921875 14.9196 10.1362 18 21.4933 18C32.8504 18 42.0647 14.9196 42.0647 11.1429V7.71428C42.0647 3.9375 32.8504 0.85714 21.4933 0.85714Z" fill="black"/>
</svg>
