<svg width="49" height="42" viewBox="0 0 49 42" fill="none" xmlns="http://www.w3.org/2000/svg">
<path d="M17.6429 7.71428V4.28571H31.3571V7.71428H17.6429ZM48.5 24.8571H30.5V29.1429C30.5 30.0804 29.7232 30.8571 28.7857 30.8571H20.2143C19.2768 30.8571 18.5 30.0804 18.5 29.1429V24.8571H0.5V37.7143C0.5 40.0714 2.42857 42 4.78571 42H44.2143C46.5714 42 48.5 40.0714 48.5 37.7143V24.8571ZM27.9286 24.8571H21.0714V28.2857H27.9286V24.8571ZM48.5 12C48.5 9.64285 46.5714 7.71428 44.2143 7.71428H34.7857V3.42857C34.7857 2.00893 33.6339 0.85714 32.2143 0.85714H16.7857C15.3661 0.85714 14.2143 2.00893 14.2143 3.42857V7.71428H4.78571C2.42857 7.71428 0.5 9.64285 0.5 12V22.2857H48.5V12Z" fill="black"/>
</svg>
