<svg width="43" height="42" viewBox="0 0 43 42" fill="none" xmlns="http://www.w3.org/2000/svg">
<path d="M19.2701 31.6518C18.6004 32.3214 17.529 32.3214 16.8594 31.6518L7.27009 22.0625C6.60045 21.3929 6.60045 20.3214 7.27009 19.6518L10.0022 16.9196C10.6719 16.25 11.7433 16.25 12.4129 16.9196L18.0647 22.5714L30.5737 10.0625C31.2433 9.39285 32.3147 9.39285 32.9844 10.0625L35.7165 12.7946C36.3862 13.4643 36.3862 14.5357 35.7165 15.2054L19.2701 31.6518ZM42.0647 8C42.0647 3.74107 38.6094 0.285712 34.3504 0.285712H8.63616C4.37723 0.285712 0.921875 3.74107 0.921875 8V33.7143C0.921875 37.9732 4.37723 41.4286 8.63616 41.4286H34.3504C38.6094 41.4286 42.0647 37.9732 42.0647 33.7143V8Z" fill="black"/>
</svg>
