<svg width="49" height="42" viewBox="0 0 49 42" fill="none" xmlns="http://www.w3.org/2000/svg">
<path d="M17.6429 17.8571C17.6429 19.7589 16.1161 21.2857 14.2143 21.2857C12.3125 21.2857 10.7857 19.7589 10.7857 17.8571C10.7857 15.9554 12.3125 14.4286 14.2143 14.4286C16.1161 14.4286 17.6429 15.9554 17.6429 17.8571ZM27.9286 17.8571C27.9286 19.7589 26.4018 21.2857 24.5 21.2857C22.5982 21.2857 21.0714 19.7589 21.0714 17.8571C21.0714 15.9554 22.5982 14.4286 24.5 14.4286C26.4018 14.4286 27.9286 15.9554 27.9286 17.8571ZM38.2143 17.8571C38.2143 19.7589 36.6875 21.2857 34.7857 21.2857C32.8839 21.2857 31.3571 19.7589 31.3571 17.8571C31.3571 15.9554 32.8839 14.4286 34.7857 14.4286C36.6875 14.4286 38.2143 15.9554 38.2143 17.8571ZM48.5 17.8571C48.5 8.375 37.7589 0.714285 24.5 0.714285C11.2411 0.714285 0.5 8.375 0.5 17.8571C0.5 23.0804 3.76786 27.7411 8.88393 30.875C8.1875 36.5268 6.17857 37.7857 4.49107 39.3661C4.16964 39.6607 3.84821 39.9286 3.95536 40.3571C4.0625 40.7589 4.46429 41.0536 4.89286 41C5.69643 40.9196 6.47321 40.7857 7.19643 40.6518C11.8036 39.6607 15.7946 37.5714 18.8482 34.5179C20.6429 34.8393 22.5446 35 24.5 35C37.7589 35 48.5 27.3393 48.5 17.8571Z" fill="black"/>
</svg>
