<svg width="43" height="49" viewBox="0 0 43 49" fill="none" xmlns="http://www.w3.org/2000/svg">
<path d="M40.2433 13.6071L29.3147 2.67857C29.0469 2.41071 28.7254 2.16964 28.3504 1.92857V14.5714H40.9933C40.7522 14.1964 40.5112 13.875 40.2433 13.6071ZM27.4933 18C26.0737 18 24.9219 16.8482 24.9219 15.4286V0.85714H3.4933C2.07366 0.85714 0.921875 2.00893 0.921875 3.42857V46.2857C0.921875 47.7054 2.07366 48.8571 3.4933 48.8571H39.4933C40.9129 48.8571 42.0647 47.7054 42.0647 46.2857V18H27.4933ZM31.779 37.7143C31.779 38.1964 31.404 38.5714 30.9219 38.5714H12.0647C11.5826 38.5714 11.2076 38.1964 11.2076 37.7143V36C11.2076 35.5179 11.5826 35.1429 12.0647 35.1429H30.9219C31.404 35.1429 31.779 35.5179 31.779 36V37.7143ZM31.779 30.8571C31.779 31.3393 31.404 31.7143 30.9219 31.7143H12.0647C11.5826 31.7143 11.2076 31.3393 11.2076 30.8571V29.1429C11.2076 28.6607 11.5826 28.2857 12.0647 28.2857H30.9219C31.404 28.2857 31.779 28.6607 31.779 29.1429V30.8571ZM31.779 24C31.779 24.4821 31.404 24.8571 30.9219 24.8571H12.0647C11.5826 24.8571 11.2076 24.4821 11.2076 24V22.2857C11.2076 21.8036 11.5826 21.4286 12.0647 21.4286H30.9219C31.404 21.4286 31.779 21.8036 31.779 22.2857V24Z" fill="black"/>
</svg>
